<?xml version="1.0" standalone="no"?>
<!DOCTYPE svg PUBLIC "-//W3C//DTD SVG 1.1//EN" "http://www.w3.org/Graphics/SVG/1.1/DTD/svg11.dtd" >
<svg xmlns="http://www.w3.org/2000/svg">
<metadata></metadata>
<defs>
<font id="zeroneroblack" horiz-adv-x="1327" >
<font-face units-per-em="2048" ascent="1536" descent="-512" />
<missing-glyph horiz-adv-x="645" />
<glyph horiz-adv-x="0" />
<glyph unicode="&#xd;" horiz-adv-x="645" />
<glyph horiz-adv-x="0" />
<glyph horiz-adv-x="0" />
<glyph unicode=" "  horiz-adv-x="645" />
<glyph unicode="&#x09;" horiz-adv-x="645" />
<glyph unicode="&#xa0;" horiz-adv-x="645" />
<glyph unicode="!" horiz-adv-x="544" d="M92 1434h361l-41 -1024h-279zM115 0v254h317v-254h-317z" />
<glyph unicode="&#x22;" horiz-adv-x="702" d="M92 1024v410h227l-63 -410h-164zM383 1024v410h227l-63 -410h-164z" />
<glyph unicode="#" horiz-adv-x="1744" d="M92 229l86 320h211l84 303h-211l86 319h213l72 263h332l-72 -263h221l72 263h332l-72 -263h207l-84 -319h-211l-84 -303h207l-84 -320h-211l-64 -229h-329l61 229h-221l-64 -229h-329l61 229h-209zM721 549h221l84 303h-221z" />
<glyph unicode="$" horiz-adv-x="1200" d="M92 152q0 -2 30 37.5t66 86.5q43 55 99 125q35 -23 71 -45q33 -18 74 -39.5t84 -35.5v319q-66 27 -131.5 68t-117.5 96t-86 124.5t-34 158.5q0 78 23 149.5t69 129.5t115.5 98t161.5 57v157h170v-153q78 -8 143.5 -31.5t117.5 -52.5t92 -58.5t69 -50.5l-188 -256 q-6 2 -27 17.5t-51.5 35t-70.5 38t-85 30.5v-278q61 -35 136 -74t139.5 -93.5t107.5 -129t43 -179.5q0 -74 -28.5 -150.5t-84 -140t-134.5 -108.5t-179 -55v-154h-170v160q-82 14 -153.5 42t-129 58.5t-94.5 57t-47 39.5zM446 1069q0 -57 70 -98v174q-41 -10 -55.5 -31.5 t-14.5 -44.5zM686 276q43 14 75 43t32 68q0 41 -30 74t-77 61v-246z" />
<glyph unicode="%" horiz-adv-x="1505" d="M92 1186q0 51 19.5 96t53.5 79t79 53.5t96 19.5t96 -19.5t79 -53.5t53.5 -79t19.5 -96t-19.5 -96.5t-53.5 -79t-79 -53t-96 -19.5t-96 19.5t-79 53t-53.5 79t-19.5 96.5zM393 0l393 1434h332l-395 -1434h-330zM918 244q0 51 19 96t53 79t79 53.5t96 19.5t96.5 -19.5 t79 -53.5t53 -79t19.5 -96t-19.5 -96.5t-53 -79t-78.5 -53t-97 -19.5q-51 0 -96 19.5t-79 53t-53 79t-19 96.5z" />
<glyph unicode="&#x26;" horiz-adv-x="1470" d="M92 369q0 111 44 188.5t96.5 127.5t96.5 74.5t44 26.5q-47 49 -80 90.5t-54.5 81t-31.5 79.5t-10 85q0 57 25.5 123t74.5 119t124 89t173 36q88 0 162.5 -32t130 -85t86.5 -120.5t31 -139.5q0 -84 -32 -148.5t-71 -109.5t-76 -71.5t-45 -32.5l185 -189q10 16 25.5 53 t29.5 75l24.5 66.5t10.5 30.5l252 -79q-8 -47 -29 -101q-16 -47 -45 -107.5t-74 -127.5q76 -72 119 -111t65 -61q25 -25 35 -33l-219 -225l-170 196q-43 -55 -108 -96q-55 -37 -138.5 -66.5t-199.5 -29.5q-98 0 -181 35.5t-142.5 96t-93.5 136.5t-34 156zM385 410 q0 -37 14.5 -71t41 -58.5t61.5 -40t76 -15.5q59 0 101 17.5t69 40.5q31 25 51 57l-269 285q-41 -25 -73 -58q-29 -29 -50.5 -67.5t-21.5 -89.5zM469 1124q4 -23 12 -43t24.5 -42.5t41 -51t61.5 -67.5q37 18 66 43q25 23 45 55.5t22 75.5q4 72 -41 119t-110 47 q-29 0 -52.5 -12.5t-40 -31t-24.5 -43t-4 -49.5z" />
<glyph unicode="'" horiz-adv-x="411" d="M92 1024v410h227l-63 -410h-164z" />
<glyph unicode="(" horiz-adv-x="524" d="M92 717q0 297 99.5 557t277.5 471l227 -227q-135 -166 -209.5 -369t-74.5 -432t74.5 -432t209.5 -369l-227 -227q-178 211 -277.5 471t-99.5 557z" />
<glyph unicode=")" horiz-adv-x="503" d="M-193 -84q135 166 210 368.5t75 432.5q0 229 -74.5 432t-210.5 369l228 227q178 -211 277.5 -471t99.5 -557t-99.5 -557t-277.5 -471z" />
<glyph unicode="*" horiz-adv-x="780" d="M92 1075l55 33l134 35l-134 35l-55 32l96 162l60 -31l84 -77l-37 106v64h192v-64l-36 -106l81 77l60 31l96 -162l-55 -32l-94 -35l94 -35l55 -33l-96 -162l-60 31l-81 78l36 -107v-63h-192v63l37 107l-84 -78l-60 -31z" />
<glyph unicode="+" horiz-adv-x="1167" d="M92 559v322h332v329h321v-329h330v-322h-330v-332h-321v332h-332z" />
<glyph unicode="," horiz-adv-x="501" d="M92 102q0 66 46 113t112 47t113 -47t47 -113q0 -39 -3.5 -78.5t-14.5 -83.5t-35.5 -94.5t-69.5 -111.5l-90 45q35 47 34.5 82t-14.5 57q-16 27 -47 47q-35 23 -56.5 57.5t-21.5 79.5z" />
<glyph unicode="-" horiz-adv-x="962" d="M92 559v322h778v-322h-778z" />
<glyph unicode="." horiz-adv-x="501" d="M92 102q0 66 46 113t112 47t113 -47t47 -113t-47.5 -111.5t-112.5 -45.5q-66 0 -112 45.5t-46 111.5z" />
<glyph unicode="/" horiz-adv-x="909" d="M92 0l393 1434h332l-395 -1434h-330z" />
<glyph unicode="0" horiz-adv-x="1243" d="M92 717q0 180 32 323.5t97.5 243.5t164.5 152.5t235 52.5q135 0 234 -52.5t165.5 -152.5t98.5 -243.5t32 -323.5q0 -182 -32 -324.5t-98.5 -243t-165.5 -152.5t-234 -52t-234.5 52t-165 152.5t-97.5 243t-32 324.5zM414 717q0 -221 53.5 -337t153.5 -116q104 0 156 116 t52 337q0 217 -52 334.5t-156 117.5q-100 0 -153.5 -117.5t-53.5 -334.5z" />
<glyph unicode="1" horiz-adv-x="737" d="M92 1001v191l311 242h242v-1434h-319v1001h-234z" />
<glyph unicode="2" horiz-adv-x="1204" d="M92 0l604 905q20 31 37 72t17 84q0 59 -38 82.5t-98 19.5q-31 -2 -61.5 -16t-58 -33.5t-51 -41t-37.5 -38.5l-224 232q49 61 115 110q55 41 131 76t168 35q160 0 274.5 -64.5t172 -166t51 -225.5t-85.5 -240l-318 -472h422v-319h-1020z" />
<glyph unicode="3" horiz-adv-x="1167" d="M92 104l227 224q45 -18 91 -33q39 -12 83 -21.5t80 -9.5q33 0 66 9.5t58.5 26.5t42 43t16.5 60q0 33 -11.5 62t-40 49.5t-76.5 31.5t-120 11h-154v320h154q211 0 211 131q0 66 -45 113.5t-111 47.5q-51 0 -85 -13t-56.5 -31.5t-35.5 -38t-26 -31.5l-229 221 q43 59 111 106q57 41 144 74t210 33q88 0 169 -35t141.5 -94.5t96 -137t35.5 -163.5q0 -59 -20.5 -110.5t-51 -93.5t-67.5 -71.5t-72 -46.5q37 -16 80 -35.5t80 -57.5t62.5 -98.5t25.5 -154.5q0 -84 -34.5 -164t-98 -143.5t-150.5 -101t-194 -37.5q-96 0 -181 17.5 t-151.5 42t-111.5 52t-62 47.5z" />
<glyph unicode="4" horiz-adv-x="1318" d="M92 223v309l957 957v-948h178v-318h-178v-223h-320v223h-637zM489 524h240v277z" />
<glyph unicode="5" horiz-adv-x="1161" d="M92 186l232 222q39 -41 82 -72q37 -29 84 -50.5t98 -21.5q27 0 55.5 11.5t52 36t39 60.5t15.5 85q0 94 -60.5 138t-165.5 48h-338v791h777v-320h-457v-151q102 -6 202.5 -24.5t180.5 -71t130 -151t50 -259.5q0 -98 -31.5 -191.5t-95 -164t-162 -113.5t-229.5 -43 q-96 0 -174 29.5t-136.5 69.5t-95 81t-53.5 61z" />
<glyph unicode="6" horiz-adv-x="1138" d="M92 557q0 106 16.5 217t53.5 214.5t96 194.5t147.5 159.5t207 107.5t272.5 39v-320q-63 -2 -139 -25.5t-141.5 -69.5t-113 -117.5t-53.5 -168.5q14 18 41 33q23 12 59.5 23.5t92.5 11.5q94 0 171 -36t131 -98.5t84 -145t30 -177.5q0 -102 -28 -186t-85 -143.5t-144.5 -92 t-205.5 -32.5q-117 0 -209 51t-154.5 135t-95.5 194.5t-33 231.5zM417 406.5q11 -56.5 50 -99.5t104 -43q66 0 97.5 23.5t46.5 52.5q16 35 14 78q0 41 -17.5 82t-48 68.5t-73.5 36.5t-96 -11q-49 -23 -68.5 -77t-8.5 -110.5z" />
<glyph unicode="7" horiz-adv-x="1288" d="M92 0l572 1112h-453v322h985l-743 -1434h-361z" />
<glyph unicode="8" horiz-adv-x="1150" d="M92 371q0 45 10.5 94t31 96t49 87t65.5 69q-39 25 -68 61q-27 33 -47 85t-20 130q0 94 25.5 183.5t81.5 159t144.5 111.5t213.5 42t212 -42t142 -111.5t80.5 -159t25.5 -183.5q0 -78 -21.5 -130t-45.5 -85q-31 -37 -68 -61q37 -29 65.5 -69t49 -87t31 -96t10.5 -94 q0 -106 -35 -186.5t-98.5 -133.5t-152.5 -79.5t-195 -26.5t-195.5 26.5t-154 79.5t-100.5 133t-36 187zM412 403q0 -59 48 -99t115 -40q68 0 116 40t48 99t-48 99.5t-116 40.5t-115.5 -40.5t-47.5 -99.5zM412 1016q0 -63 48 -108.5t115 -45.5q68 0 116 45t48 109 q0 63 -48 108t-116 45t-115.5 -45t-47.5 -108z" />
<glyph unicode="9" horiz-adv-x="1138" d="M92 1034q0 102 27.5 186.5t85 143.5t144.5 92t206 33q117 0 209 -51.5t154.5 -135t95.5 -195t33 -230.5q0 -106 -16.5 -217t-53.5 -214.5t-96.5 -194.5t-147.5 -159.5t-206.5 -107.5t-272.5 -39v319q63 2 138 25.5t141.5 70t113.5 118t53 167.5q-14 -20 -41 -35 q-23 -12 -60.5 -22t-90.5 -10q-94 0 -171 35.5t-131 98t-84 145.5t-30 177zM410 1016q0 -41 17 -82t48 -68.5t74 -36.5t96 11q49 23 68.5 77t8.5 110t-50 99t-105 43t-97.5 -24.5t-45.5 -52.5q-16 -35 -14 -76z" />
<glyph unicode=":" horiz-adv-x="501" d="M92 102q0 66 46 113t112 47t113 -47t47 -113t-47.5 -111.5t-112.5 -45.5q-66 0 -112 45.5t-46 111.5zM92 778q0 66 46 113t112 47t113 -47t47 -113t-47.5 -111.5t-112.5 -45.5q-66 0 -112 45.5t-46 111.5z" />
<glyph unicode=";" horiz-adv-x="501" d="M92 102q0 66 46 113t112 47t113 -47t47 -113q0 -39 -3.5 -78.5t-14.5 -83.5t-35.5 -94.5t-69.5 -111.5l-90 45q35 47 34.5 82t-14.5 57q-16 27 -47 47q-35 23 -56.5 57.5t-21.5 79.5zM92 778q0 66 46 113t112 47t113 -47t47 -113t-47.5 -111.5t-112.5 -45.5 q-66 0 -112 45.5t-46 111.5z" />
<glyph unicode="&#x3c;" horiz-adv-x="888" d="M92 512l543 512l162 -168l-265 -344l265 -344l-162 -168z" />
<glyph unicode="=" horiz-adv-x="1191" d="M92 94v320h1008v-320h-1008zM92 618v320h1008v-320h-1008z" />
<glyph unicode="&#x3e;" horiz-adv-x="888" d="M92 168l264 344l-264 344l162 168l543 -512l-543 -512z" />
<glyph unicode="?" horiz-adv-x="1077" d="M92 1260q47 63 115 114q57 43 141 79t199 36q86 0 165 -27.5t139 -78t97 -119t37 -150.5q0 -70 -23.5 -119t-59.5 -85t-78 -66.5t-77.5 -65.5t-59 -79t-23.5 -109v-41h-312v131q0 82 46 135t102.5 94t102.5 79t46 89q0 49 -35.5 88t-105.5 39q-47 0 -89 -18.5t-75 -40.5 q-37 -25 -72 -58zM305 145q0 43 16.5 80t44 65.5t63.5 45t77 16.5q43 0 80 -16.5t65.5 -45t45 -65.5t16.5 -80q0 -41 -16.5 -76.5t-45 -63.5t-65.5 -44t-80 -16q-41 0 -77 16t-63.5 44t-44 63.5t-16.5 76.5z" />
<glyph unicode="@" horiz-adv-x="2084" d="M92 457q0 217 73 400t204 316.5t313 207t401 73.5q217 0 386 -65.5t286 -181t177.5 -274.5t60.5 -343q0 -102 -25.5 -210t-84 -197t-151 -146t-225.5 -57q-51 0 -92 15t-72.5 39.5t-54 55.5t-37.5 62q-37 -76 -101.5 -127.5t-164.5 -51.5q-90 0 -161.5 34t-124 93.5 t-80 137.5t-27.5 168q0 88 27.5 166.5t80 138t124 93.5t161.5 34q86 0 144.5 -39t97.5 -99l51 119h147v-383q0 -68 10.5 -106.5t27 -60t37 -27.5t40.5 -6q45 0 78 31.5t53.5 80.5t30.5 109.5t10 115.5q0 133 -40 247t-119.5 198t-199.5 131t-280 47q-162 0 -293 -51 t-224 -147.5t-143.5 -233.5t-50.5 -307q0 -127 39 -234.5t106.5 -194.5t161 -154t201.5 -116q-31 -84 -49 -130t-28 -68q-10 -27 -15 -35q-147 33 -273 126t-218 221t-143.5 280.5t-51.5 304.5zM850 416q0 -86 45 -130t104 -44q63 0 104.5 52t41.5 124q0 78 -42 127t-110 49 q-66 0 -104.5 -52t-38.5 -126z" />
<glyph unicode="A" horiz-adv-x="1572" d="M92 0l694 1489l695 -1489h-355l-86 213h-508l-86 -213h-354zM662 532h247l-123 310z" />
<glyph unicode="B" horiz-adv-x="1177" d="M92 0v1434h514q113 0 196 -28t138 -77t82 -114.5t27 -139.5q0 -100 -20.5 -163.5t-51.5 -101.5t-65.5 -55.5t-63.5 -25.5q39 -4 81 -20.5t76.5 -57.5t57 -111.5t22.5 -181.5q0 -74 -30.5 -139t-85 -114.5t-126 -77t-153.5 -27.5h-598zM414 322h186q59 0 103.5 22.5 t44.5 97.5q0 35 -12.5 57.5t-32 35t-45 17.5t-52.5 5h-192v-235zM414 879h192q47 0 77 34.5t30 81.5q0 25 -8.5 48.5t-21.5 44t-32.5 33t-44.5 12.5h-192v-254z" />
<glyph unicode="C" horiz-adv-x="1503" d="M92 717q0 160 60.5 300t166 245.5t246 166t299.5 60.5q160 0 300.5 -61.5t244.5 -165.5l-225 -226q-61 59 -143.5 95t-176.5 36t-176 -34.5t-143.5 -96t-96 -143.5t-34.5 -176t34.5 -176t96 -143.5t143.5 -96.5t176 -35t176 35t144 96l227 -225q-106 -106 -246.5 -166.5 t-300.5 -60.5t-300 60.5t-245.5 165.5t-166 245.5t-60.5 300.5z" />
<glyph unicode="D" horiz-adv-x="1439" d="M92 0v1434h537q180 0 303 -48.5t202.5 -122t122.5 -160.5t63.5 -167t24 -140.5t3.5 -78.5q-10 -201 -91 -359q-35 -68 -86 -132t-126.5 -114.5t-178 -81t-237.5 -30.5h-537zM412 322h196q74 0 131.5 16t100.5 44t71.5 63.5t46.5 72.5q43 86 50 199q0 12 -2 48t-13.5 82 t-35 96t-67.5 92t-112.5 70t-169.5 28h-196v-811z" />
<glyph unicode="E" horiz-adv-x="1110" d="M92 0v1434h926v-320h-606v-223h506v-320h-506v-252h606v-319h-926z" />
<glyph unicode="F" horiz-adv-x="1110" d="M92 0v1434h926v-322h-606v-233h506v-320h-506v-559h-320z" />
<glyph unicode="G" horiz-adv-x="1626" d="M92 717q0 160 60.5 300t166 245.5t246 166t299.5 60.5q160 0 300.5 -61.5t244.5 -165.5l-225 -226q-61 59 -143.5 95t-176.5 36t-176 -34.5t-143.5 -96t-96 -143.5t-34.5 -176t34.5 -176t96 -143.5t143.5 -96.5t176 -35q131 0 202 33t103 74q37 47 43 106h-348v320h668 v-322q-10 -150 -84 -266q-31 -49 -79 -97t-118.5 -86t-166 -60.5t-220.5 -22.5q-160 0 -300 60.5t-245.5 165.5t-166 245.5t-60.5 300.5z" />
<glyph unicode="H" horiz-adv-x="1431" d="M92 0v1434h320v-635h608v635h319v-1434h-319v479h-608v-479h-320z" />
<glyph unicode="I" horiz-adv-x="503" d="M92 0v1434h320v-1434h-320z" />
<glyph unicode="J" horiz-adv-x="503" d="M-59 -279q70 61 110.5 148.5t40.5 189.5v1375h320v-1375q0 -166 -65.5 -311t-180.5 -252z" />
<glyph unicode="K" horiz-adv-x="1392" d="M92 0v1434h320v-586l477 586h411l-583 -717l583 -717h-411l-379 463l-98 -121v-342h-320z" />
<glyph unicode="L" horiz-adv-x="1064" d="M92 0v1434h320v-1115h561v-319h-881z" />
<glyph unicode="M" horiz-adv-x="1826" d="M92 0l230 1489l591 -868l592 868l230 -1489h-326l-94 627l-402 -682l-401 682l-94 -627h-326z" />
<glyph unicode="N" horiz-adv-x="1368" d="M92 0v1489l864 -784v729h320v-1489l-864 788v-733h-320z" />
<glyph unicode="O" horiz-adv-x="1728" d="M92 715q0 162 60.5 303t165 245.5t244.5 165t300 60.5q162 0 303.5 -60.5t246 -165t164.5 -245.5t60 -303q0 -160 -60 -300.5t-164.5 -244.5t-246 -164.5t-303.5 -60.5q-160 0 -300 60.5t-244.5 164.5t-165 244.5t-60.5 300.5zM414 715q0 -94 35.5 -176t96 -142.5 t142.5 -95.5t174 -35q94 0 177 35t144.5 95.5t96.5 142.5t35 176t-35 176t-96.5 143.5t-144.5 97t-177 35.5q-92 0 -174 -35.5t-142.5 -97t-96 -143.5t-35.5 -176z" />
<glyph unicode="P" horiz-adv-x="1316" d="M92 0v1434h625q104 0 197.5 -40t162 -108.5t108.5 -162t40 -197.5t-40 -197.5t-108.5 -163t-162 -109.5t-197.5 -40h-305v-416h-320zM412 717h305q43 0 81 16.5t66.5 45t45 66.5t16.5 81q0 80 -54.5 138t-130.5 69h-329v-416z" />
<glyph unicode="Q" horiz-adv-x="1728" d="M92 715q0 162 60.5 303t165 245.5t244.5 165t300 60.5q162 0 303.5 -60.5t246 -165t164.5 -245.5t60 -303q0 -111 -29.5 -213.5t-84 -190.5t-129 -157.5t-166.5 -118.5l246 -244l-228 -227l-383 381q-160 0 -300 60.5t-244.5 164.5t-165 244.5t-60.5 300.5zM414 715 q0 -94 35.5 -176t96 -142.5t142.5 -95.5t174 -35q94 0 177 35t144.5 95.5t96.5 142.5t35 176t-35 176t-96.5 143.5t-144.5 97t-177 35.5q-92 0 -174 -35.5t-142.5 -97t-96 -143.5t-35.5 -176z" />
<glyph unicode="R" horiz-adv-x="1316" d="M92 0v1434h625q104 0 197.5 -40t162 -108.5t108.5 -162t40 -197.5q0 -82 -24.5 -156t-67.5 -136.5t-102.5 -110.5t-131.5 -74l326 -449h-394l-268 416h-151v-416h-320zM412 717h305q43 0 81 16.5t66.5 45t45 66.5t16.5 81q0 80 -54.5 138t-130.5 69h-329v-416z" />
<glyph unicode="S" horiz-adv-x="1200" d="M92 152q0 -2 30 37.5t66 86.5q43 55 99 125q55 -39 112 -69q49 -27 106.5 -47.5t108.5 -20.5q31 0 63 9.5t57.5 25.5t42 38.5t16.5 49.5q0 63 -72 111.5t-176 89.5q-66 27 -136.5 66.5t-129 96t-95.5 130t-37 166.5q0 88 30 167.5t89.5 141t147.5 97.5t207 36 q92 0 167.5 -22.5t137 -53.5t106.5 -64.5t76 -56.5l-188 -256q-6 4 -36 25.5t-73 45t-96 43t-111 19.5q-55 0 -96 -29.5t-41 -70.5q0 -57 54 -103t177 -96q59 -25 132 -61.5t135.5 -91.5t104.5 -132t42 -182q0 -80 -32.5 -160.5t-95 -147t-153 -108.5t-202.5 -42 q-100 0 -191.5 26.5t-164 62.5t-121 70t-60.5 48z" />
<glyph unicode="T" horiz-adv-x="1110" d="M92 1114v320h926v-320h-305v-1114h-320v1114h-301z" />
<glyph unicode="U" horiz-adv-x="1429" d="M92 567v867h320v-867q0 -63 23.5 -118.5t64.5 -96.5t96 -64.5t119 -23.5q63 0 118.5 23.5t96.5 64.5t64.5 96.5t23.5 118.5v867h319v-867q0 -129 -49 -242.5t-133 -197.5t-197.5 -133t-242.5 -49t-243 49t-198 133t-133 197.5t-49 242.5z" />
<glyph unicode="V" horiz-adv-x="1572" d="M92 1434h354l340 -779l340 779h355l-695 -1491z" />
<glyph unicode="W" horiz-adv-x="1826" d="M92 1434h326l135 -791l360 424l361 -424l135 791h326l-230 -1489l-592 663l-591 -663z" />
<glyph unicode="X" horiz-adv-x="1456" d="M92 0l447 719l-447 715h379l256 -414l258 414h379l-449 -715l449 -719h-375l-262 418l-260 -418h-375z" />
<glyph unicode="Y" horiz-adv-x="1456" d="M92 1434h379l256 -414l258 414h379l-477 -715v-719h-320v719z" />
<glyph unicode="Z" horiz-adv-x="1288" d="M92 0l572 1112h-453v322h985l-580 -1115h502v-319h-1026z" />
<glyph unicode="[" horiz-adv-x="788" d="M92 -317v2068h604v-319h-284v-1430h284v-319h-604z" />
<glyph unicode="\" horiz-adv-x="909" d="M92 1434h332l393 -1434h-330z" />
<glyph unicode="]" horiz-adv-x="788" d="M92 2h285v1430h-285v319h604v-2068h-604v319z" />
<glyph unicode="^" horiz-adv-x="1048" d="M92 1556l432 359l432 -359l-94 -133l-338 232l-338 -232z" />
<glyph unicode="_" horiz-adv-x="1617" d="M92 -53h1434v-320h-1434v320z" />
<glyph unicode="`" horiz-adv-x="712" d="M92 1393l199 151l330 -256l-95 -133z" />
<glyph unicode="a" horiz-adv-x="1368" d="M92 516q0 119 45 222.5t123 181t181.5 122.5t222.5 45t222 -45t181 -122.5t123 -181t45 -222.5l41 -516h-281l-14 72q-80 -59 -164 -93t-153 -34q-119 0 -222.5 45t-181.5 122.5t-123 181t-45 222.5zM412 516q0 -53 19.5 -98t54 -80t79.5 -54.5t99 -19.5q51 0 97 19.5 t79.5 54.5t53 80t19.5 98q0 51 -19.5 97t-53 80t-79.5 53.5t-97 19.5q-53 0 -98.5 -19.5t-80 -53.5t-54 -80t-19.5 -97z" />
<glyph unicode="b" horiz-adv-x="1368" d="M92 0l41 516v918h322v-424q55 35 117.5 56t132.5 21q119 0 222 -45t181 -122.5t123 -181t45 -222.5t-45 -222.5t-123 -181t-181.5 -122.5t-221.5 -45q-80 0 -163 31.5t-157 84.5l-12 -61h-281zM455 516q0 -53 19.5 -98t53 -80t78.5 -54.5t99 -19.5q51 0 97 19.5t81 54.5 t54 80t19 98q0 51 -19 97t-54 80t-81 53.5t-97 19.5q-104 0 -175 -70.5t-75 -179.5z" />
<glyph unicode="c" horiz-adv-x="1189" d="M92 516q0 119 45 222.5t123 181t181.5 122.5t222.5 45q129 0 242.5 -54t191.5 -146l-230 -228q-35 47 -87 77t-117 30q-53 0 -98.5 -19.5t-80 -53.5t-54 -80t-19.5 -97q0 -53 19.5 -98t54 -80t79.5 -54.5t99 -19.5q66 0 118 29t86 78l230 -228q-78 -92 -191.5 -145 t-242.5 -53q-119 0 -222.5 45t-181.5 122.5t-123 181t-45 222.5z" />
<glyph unicode="d" horiz-adv-x="1368" d="M92 516q0 119 45 222.5t123 181t181.5 122.5t222.5 45q70 0 132 -21.5t117 -55.5v424h322v-918l41 -516h-281l-12 61q-74 -53 -157 -84.5t-162 -31.5q-119 0 -222.5 45t-181.5 122.5t-123 181t-45 222.5zM412 516q0 -53 19.5 -98t54 -80t79.5 -54.5t99 -19.5 q51 0 97 19.5t79.5 54.5t53 80t19.5 98q-4 109 -74.5 179.5t-174.5 70.5q-53 0 -98.5 -19.5t-80 -53.5t-54 -80t-19.5 -97z" />
<glyph unicode="e" d="M92 516q0 119 45 222.5t123 181t181.5 122.5t222.5 45t222 -45t181 -122.5t123 -181t45 -222.5v-119h-789q14 -25 36 -49t54.5 -42.5t79 -30t109.5 -11.5t108.5 9.5t75.5 19.5q35 12 60 31l207 -205q-39 -41 -91.5 -73t-113 -54.5t-124 -34.5t-122.5 -12q-141 0 -258 45 t-200 122.5t-129 181t-46 222.5zM426 635h471q-18 61 -52 96t-71 52.5t-67.5 20.5t-42.5 3t-44 -3t-69 -20.5t-72 -52.5t-53 -96z" />
<glyph unicode="f" horiz-adv-x="741" d="M92 0v924q0 166 65.5 311t180.5 252l225 -225q-70 -61 -110.5 -148.5t-40.5 -189.5v-45h237l-22 -281l-215 -25v-573h-320z" />
<glyph unicode="g" horiz-adv-x="1368" d="M92 516q0 119 45 222.5t123 181t181.5 122.5t222.5 45q86 0 172 -25.5t151 -76.5l8 37h281l-41 -514v-457q0 -166 -65.5 -311.5t-180.5 -251.5l-225 225q59 53 98 128t49 161q-119 -57 -247 -57q-119 0 -222.5 45t-181.5 122.5t-123 181t-45 222.5zM412 516 q0 -53 19.5 -98t54 -80t79.5 -54.5t99 -19.5q51 0 97 19.5t79.5 54.5t53 80t19.5 98q0 51 -19.5 97t-53 80t-79.5 53.5t-97 19.5q-53 0 -98.5 -19.5t-80 -53.5t-54 -80t-19.5 -97z" />
<glyph unicode="h" d="M92 0v1434h322v-424q55 35 117.5 56t132.5 21q119 0 222 -45t181 -122.5t123 -181t45 -222.5v-516h-322v516q0 51 -19.5 97t-53 80t-79.5 53.5t-97 19.5t-96.5 -18.5t-79 -51t-53 -77t-21.5 -93.5v-526h-322z" />
<glyph unicode="i" horiz-adv-x="503" d="M92 0v1024h320v-1024h-320zM94 1180v254h318v-254h-318z" />
<glyph unicode="j" horiz-adv-x="503" d="M-59 -279q70 61 110.5 148.5t40.5 189.5v965h320v-965q0 -166 -65.5 -311t-180.5 -252zM94 1180v254h318v-254h-318z" />
<glyph unicode="k" horiz-adv-x="1191" d="M92 0v1434h320v-701l243 289h445l-359 -365l349 -657h-361l-203 438l-114 -119v-319h-320z" />
<glyph unicode="l" horiz-adv-x="503" d="M92 0v1434h320v-1434h-320z" />
<glyph unicode="m" horiz-adv-x="1826" d="M92 0l230 1087l591 -712l592 712l230 -1087h-326l-94 389l-402 -444l-401 444l-94 -389h-326z" />
<glyph unicode="n" horiz-adv-x="1368" d="M92 0v1087l864 -571v508h320v-1079l-864 571v-516h-320z" />
<glyph unicode="o" d="M92 516q0 119 45 222.5t123 181t181.5 122.5t222.5 45t222 -45t181 -122.5t123 -181t45 -222.5t-45 -222.5t-123 -181t-181.5 -122.5t-221.5 -45q-119 0 -222.5 45t-181.5 122.5t-123 181t-45 222.5zM412 516q0 -53 19.5 -98t54 -80t79.5 -54.5t99 -19.5q51 0 97 19.5 t79.5 54.5t53 80t19.5 98q0 51 -19.5 97t-53 80t-79.5 53.5t-97 19.5q-53 0 -98.5 -19.5t-80 -53.5t-54 -80t-19.5 -97z" />
<glyph unicode="p" horiz-adv-x="1368" d="M92 1024h281l12 -55q74 53 157 85.5t163 32.5q119 0 222 -45t181 -122.5t123 -182t45 -223.5t-45 -222.5t-123 -181t-181.5 -122.5t-221.5 -45q-70 0 -132.5 21.5t-117.5 55.5v-423h-322v917zM455 514q4 -109 74.5 -179.5t175.5 -70.5q51 0 97 19.5t81 53.5t54 79t19 98 q0 51 -19 98t-54 81t-81 54.5t-97 20.5q-53 0 -98.5 -20.5t-79 -54.5t-53 -81t-19.5 -98z" />
<glyph unicode="q" horiz-adv-x="1368" d="M92 514q0 119 45 223.5t123 182t181.5 122.5t222.5 45q80 0 162.5 -32.5t156.5 -85.5l12 55h281l-41 -510v-917h-322v423q-55 -35 -117.5 -56t-131.5 -21q-119 0 -222.5 45t-181.5 122.5t-123 181t-45 222.5zM412 514q0 -53 19.5 -98t54 -79t79.5 -53.5t99 -19.5 q104 0 174.5 71t74.5 179q0 51 -19.5 98t-53 81t-79.5 54.5t-97 20.5q-53 0 -98.5 -20.5t-80 -54.5t-54 -81t-19.5 -98z" />
<glyph unicode="r" horiz-adv-x="1015" d="M92 1024h281l12 -66q80 59 165 94t155 35q113 0 219 -45l-144 -288q-37 12 -75 12q-53 0 -98.5 -19.5t-79 -53.5t-53 -80t-19.5 -97v-516h-322v508z" />
<glyph unicode="s" horiz-adv-x="1052" d="M92 61l127 252q59 -18 117 -32q49 -12 103.5 -21.5t99.5 -9.5q57 0 75.5 22.5t18.5 46.5q0 20 -42 49t-147 66q-80 27 -144 58.5t-109.5 69.5t-70 87t-24.5 113q0 68 24.5 127t77 103t133.5 69.5t191 25.5q131 0 231.5 -28.5t180.5 -77.5l-135 -256q-16 4 -52 18.5 t-81 28.5t-93.5 25.5t-89.5 11.5q-27 0 -43 -14.5t-16 -34.5t26.5 -36.5t96.5 -41.5q82 -29 157.5 -62.5t132 -79.5t90.5 -106.5t34 -142.5q0 -72 -29 -134.5t-87.5 -109.5t-144.5 -74.5t-202 -27.5q-135 0 -236.5 31.5t-169.5 84.5z" />
<glyph unicode="t" horiz-adv-x="737" d="M92 510v924h320v-410h233l-22 -281l-211 -24v-207q0 -102 41 -190.5t110 -149.5l-225 -225q-115 106 -180.5 251.5t-65.5 311.5z" />
<glyph unicode="u" horiz-adv-x="1347" d="M92 567v457h320v-457q0 -63 14 -118.5t44 -96.5t75 -64.5t108 -23.5t108.5 23.5t74 64.5t43 96.5t14.5 118.5v457h321v-508l41 -516h-280l-14 70q-74 -59 -155 -92t-153 -33q-129 0 -232.5 49t-177 133t-112.5 197.5t-39 242.5z" />
<glyph unicode="v" horiz-adv-x="1406" d="M92 1024h354l256 -492l259 492h354l-613 -1081z" />
<glyph unicode="w" horiz-adv-x="1826" d="M92 1024h326l94 -545l401 281l402 -281l94 545h326l-230 -1079l-592 446l-591 -446z" />
<glyph unicode="x" horiz-adv-x="1187" d="M92 0l314 512l-314 512h377l125 -287l125 287h377l-314 -512l314 -512h-375l-127 289l-127 -289h-375z" />
<glyph unicode="y" horiz-adv-x="1406" d="M92 1024h354l256 -616l259 616h354l-453 -1024q0 -166 -65.5 -304t-180.5 -245l-225 225q70 61 111 141.5t41 182.5z" />
<glyph unicode="z" horiz-adv-x="1288" d="M92 0l490 700h-371v324h985l-498 -705h420v-319h-1026z" />
<glyph unicode="{" horiz-adv-x="909" d="M92 618v197q51 0 81 43t45 106.5t18.5 133t3.5 123.5q0 100 24.5 177t65.5 133t92 94t106 63q127 57 289 63v-319q-76 2 -135 -21q-51 -18 -93 -61t-42 -129q0 -170 -27.5 -269.5t-62.5 -151.5t-69 -66.5t-46 -16.5q10 -2 43 -15.5t68.5 -63.5t64.5 -150.5t29 -274.5 q0 -86 42 -130t93 -63q59 -23 135 -18v-319q-162 6 -289 63q-55 25 -106 62.5t-92 94t-65.5 133.5t-24.5 177q0 51 -3.5 119.5t-18.5 131t-45 106.5t-81 48z" />
<glyph unicode="|" horiz-adv-x="354" d="M92 -205v1843h170v-1843h-170z" />
<glyph unicode="}" horiz-adv-x="909" d="M92 2q76 -4 135 18q51 18 93 62.5t42 130.5q0 170 27 269.5t62.5 150.5t69.5 66.5t46 17.5q-10 0 -44 13t-69.5 64.5t-63.5 152t-28 274.5q0 86 -41.5 129t-93.5 61q-59 23 -135 21v319q162 -6 289 -63q53 -25 105.5 -63t93.5 -94t65.5 -133t24.5 -177q0 -53 3 -123 t18.5 -133.5t44 -106.5t81.5 -43v-197q-53 -4 -81.5 -48t-44 -106.5t-18.5 -131t-3 -119.5q0 -100 -24.5 -177t-65.5 -133.5t-93.5 -94t-105.5 -62.5q-127 -57 -289 -63v319z" />
<glyph unicode="~" horiz-adv-x="1189" d="M92 680q8 8 38 45t74 78t100 72.5t116 31.5q66 0 115 -27.5t92 -56.5q31 -20 68.5 -42.5t80.5 -22.5q53 0 95 43t79 104l148 -151q-8 -10 -37 -46t-73 -76t-98 -72t-114 -32q-74 0 -126 29t-99 59q-29 20 -60.5 39t-72.5 19q-53 0 -95 -42t-79 -102z" />
<glyph unicode="&#xa1;" horiz-adv-x="544" d="M92 0h361l-41 1024h-279zM115 1180h317v254h-317v-254z" />
<glyph unicode="&#xa2;" horiz-adv-x="1189" d="M92 516q0 98 32 187.5t88 161t133 124.5t167 78v195h170v-175q123 -4 231.5 -57t184.5 -143l-230 -228q-33 45 -80 74t-106 33v-502q59 4 106.5 32t79.5 75l230 -228q-76 -90 -184.5 -142t-231.5 -56v-150h-170v170q-90 25 -167 77t-133 124t-88 162t-32 188zM412 516 q0 -61 26.5 -114.5t73.5 -88.5v404q-47 -35 -73.5 -87.5t-26.5 -113.5z" />
<glyph unicode="&#xa3;" horiz-adv-x="1067" d="M-141 559v322h233v43q0 166 65.5 311t180.5 252l225 -225q-70 -61 -110.5 -148.5t-40.5 -189.5v-43h225v-322h-225v-240q102 0 189 41t149 111l225 -225q-106 -115 -251.5 -180.5t-311.5 -65.5h-320v559h-233z" />
<glyph unicode="&#xa5;" horiz-adv-x="1191" d="M-39 1434h379l256 -414l258 414h379l-359 -537h226v-319h-344v-123h344v-320h-344v-135h-320v135h-344v320h344v123h-344v319h225z" />
<glyph unicode="&#xa6;" horiz-adv-x="354" d="M92 -205v828h170v-828h-170zM92 793v845h170v-845h-170z" />
<glyph unicode="&#xa7;" horiz-adv-x="1226" d="M88 551q0 90 42 181t122 161q-37 47 -57.5 105.5t-20.5 127.5q0 88 29.5 168t89 141.5t147.5 97.5t207 36q92 0 168 -22.5t137.5 -53.5t106.5 -64.5t76 -56.5l-189 -256q-6 4 -35.5 25.5t-72.5 45t-96.5 43t-110.5 19.5q-55 0 -96 -29.5t-41 -70.5q0 -57 54 -103.5 t177 -95.5q59 -25 132 -61.5t135.5 -92t104.5 -132.5t42 -181q0 -92 -43 -183t-121 -159q35 -49 56.5 -106.5t21.5 -126.5q0 -88 -30 -168t-89.5 -141.5t-147.5 -97.5t-206 -36q-92 0 -168 23t-137.5 53.5t-106.5 64.5t-76 56l189 256q6 -4 35.5 -25.5t72.5 -45t96.5 -43 t110.5 -19.5q55 0 96 29.5t41 70.5q0 57 -54 103.5t-177 95.5q-59 25 -132 61.5t-135.5 92t-104.5 132t-42 181.5zM408 567q0 -43 31.5 -76.5t76.5 -61.5t94 -47.5t82 -31.5q49 10 88 42t39 75q0 66 -76 115t-211 102q-49 -12 -86.5 -44t-37.5 -73z" />
<glyph unicode="&#xa8;" horiz-adv-x="989" d="M92 1313q0 66 46 113t112 47t113 -47.5t47 -112.5q0 -66 -47.5 -112t-112.5 -46q-66 0 -112 46t-46 112zM580 1313q0 66 46 113t111 47q66 0 113 -47.5t47 -112.5q0 -66 -47 -112t-113 -46t-111.5 46t-45.5 112z" />
<glyph unicode="&#xa9;" horiz-adv-x="1277" d="M92 715q0 111 44 211t120 176t176 120t211 44t210 -44t173 -120t117 -176.5t43 -210.5q0 -113 -43 -212.5t-117 -173t-173 -115.5t-210 -42t-211 42t-176 115.5t-120 173t-44 212.5zM221 715q0 -86 34 -163t91 -134.5t134 -91t163 -33.5t163 33.5t134 91t91 134.5t34 163 t-34 162.5t-91 134t-134 91.5t-163 34t-163 -34t-134 -91.5t-91 -134t-34 -162.5zM334 717q0 63 24.5 120.5t65.5 98.5t97.5 65.5t121.5 24.5q63 0 118.5 -24.5t98.5 -65.5l-90 -92q-25 25 -57.5 39t-69.5 14q-78 0 -129 -51t-51 -129q0 -76 51 -127t129 -51q37 0 69.5 14 t57.5 37l90 -90q-43 -43 -98 -66.5t-119 -23.5q-66 0 -122 24.5t-97 66.5t-65.5 97t-24.5 119z" />
<glyph unicode="&#xab;" horiz-adv-x="983" d="M92 516l256 330l133 -94l-129 -236l129 -235l-133 -95zM502 516l256 330l133 -94l-129 -236l129 -235l-133 -95z" />
<glyph unicode="&#xad;" horiz-adv-x="962" d="M92 559v322h778v-322h-778z" />
<glyph unicode="&#xae;" horiz-adv-x="1277" d="M92 715q0 111 44 211t120 176t176 120t211 44t210 -44t173 -120t117 -176.5t43 -210.5q0 -113 -43 -212.5t-117 -173t-173 -115.5t-210 -42t-211 42t-176 115.5t-120 173t-44 212.5zM221 715q0 -86 34 -163t91 -134.5t134 -91t163 -33.5t163 33.5t134 91t91 134.5t34 163 t-34 162.5t-91 134t-134 91.5t-163 34t-163 -34t-134 -91.5t-91 -134t-34 -162.5zM414 426v582h254q43 0 79.5 -16.5t64.5 -44t44 -65.5t16 -81q0 -66 -36.5 -118t-94.5 -75l131 -182h-159l-109 168h-61v-168h-129zM543 717h125q35 0 59.5 24.5t24.5 59.5q0 33 -21.5 56.5 t-52.5 27.5h-135v-168z" />
<glyph unicode="&#xb0;" horiz-adv-x="788" d="M92 1272q0 61 23.5 116.5t64.5 97.5t96.5 65.5t116.5 23.5t116.5 -23.5t97.5 -65.5t65.5 -97.5t23.5 -116.5t-23.5 -116.5t-65.5 -96.5t-97 -64.5t-117 -23.5q-61 0 -116.5 23.5t-96.5 64.5t-64.5 96.5t-23.5 116.5zM254 1270q0 -57 40 -97t97 -40t96 39.5t39 97.5 q0 57 -38.5 96t-96.5 39q-57 0 -97 -39t-40 -96z" />
<glyph unicode="&#xb1;" horiz-adv-x="1167" d="M92 0v322h983v-322h-983zM92 782v322h332v330h321v-330h330v-322h-330v-331h-321v331h-332z" />
<glyph unicode="&#xb4;" horiz-adv-x="712" d="M92 1288l330 256l199 -151l-435 -238z" />
<glyph unicode="&#xb5;" horiz-adv-x="1306" d="M92 -420v1444h320v-457q0 -63 14 -118.5t44 -96.5t75 -64.5t108 -23.5t108.5 23.5t74 64.5t43 96.5t14.5 118.5v457h321v-508l41 -516h-280l-14 70q-31 -37 -76 -64q-39 -23 -96.5 -42t-135.5 -19q-59 0 -103 11t-75 26q-37 16 -63 36v-438h-320z" />
<glyph unicode="&#xb6;" horiz-adv-x="1935" d="M92 926q0 104 40 197.5t108.5 162t161 108.5t196.5 40h320h925v-320h-305v-1534h-319v1534h-301v-1534h-320v836q-104 0 -196.5 40t-161 109.5t-108.5 162.5t-40 198z" />
<glyph unicode="&#xb7;" horiz-adv-x="501" d="M92 621q0 66 46 112.5t112 46.5t113 -47t47 -112q0 -39 -3.5 -79t-14.5 -84t-35.5 -94.5t-69.5 -111.5l-90 45q35 47 34.5 82t-14.5 57q-16 27 -47 47q-35 23 -56.5 58t-21.5 80z" />
<glyph unicode="&#xb8;" horiz-adv-x="489" d="M92 0v170h2q61 0 116.5 -23.5t97.5 -65.5t65.5 -97.5t23.5 -116.5t-23.5 -116.5t-65.5 -96.5t-97 -64.5t-117 -23.5l-2 162q57 0 96 39.5t39 97.5q0 57 -38.5 96t-96.5 39z" />
<glyph unicode="&#xbb;" horiz-adv-x="983" d="M92 279l129 235l-129 236l133 94l256 -330l-256 -330zM502 279l129 235l-129 236l133 94l256 -330l-256 -330z" />
<glyph unicode="&#xbf;" horiz-adv-x="1077" d="M92 57q0 70 23.5 119t59.5 85t78 66.5t77.5 65.5t59 79t23.5 109v41h312v-131q0 -82 -46 -135t-102.5 -94t-102.5 -79t-46 -89q0 -49 35.5 -88t105.5 -39q47 0 89 18.5t75 40.5q37 25 72 58l180 -173q-47 -63 -115 -114q-57 -43 -141 -79t-199 -36q-86 0 -165 27.5 t-139 78t-97 119t-37 150.5zM364 1026q0 41 16.5 76.5t45 63.5t65.5 44t80 16q41 0 77 -16t63.5 -44t44 -63.5t16.5 -76.5q0 -43 -16.5 -80t-44 -65.5t-63.5 -45t-77 -16.5q-43 0 -80 16.5t-65.5 45t-45 65.5t-16.5 80z" />
<glyph unicode="&#xc0;" horiz-adv-x="1572" d="M92 0l694 1489l695 -1489h-355l-86 213h-508l-86 -213h-354zM522 1803l199 151l330 -256l-95 -133zM662 532h247l-123 310z" />
<glyph unicode="&#xc1;" horiz-adv-x="1572" d="M92 0l694 1489l695 -1489h-355l-86 213h-508l-86 -213h-354zM522 1698l330 256l199 -151l-435 -238zM662 532h247l-123 310z" />
<glyph unicode="&#xc2;" horiz-adv-x="1572" d="M92 0l694 1489l695 -1489h-355l-86 213h-508l-86 -213h-354zM457 1698l330 256l330 -256l-95 -133l-235 129l-236 -129zM662 532h247l-123 310z" />
<glyph unicode="&#xc3;" horiz-adv-x="1572" d="M92 0l694 1489l695 -1489h-355l-86 213h-508l-86 -213h-354zM457 1622q12 25 31.5 60t47.5 65.5t63.5 53t82.5 22.5q39 0 68 -17.5t52.5 -39t47 -39t52.5 -17.5t46 16.5t29 37.5q12 23 23 53l117 -80q-16 -33 -37 -68.5t-47.5 -65.5t-60.5 -49.5t-77 -19.5 q-41 0 -70.5 17.5t-55 39t-49 40t-48.5 18.5q-27 0 -45 -16.5t-33 -36.5q-16 -23 -28 -53zM662 532h247l-123 310z" />
<glyph unicode="&#xc4;" horiz-adv-x="1572" d="M92 0l694 1489l695 -1489h-355l-86 213h-508l-86 -213h-354zM385 1723q0 66 46 113t112 47t113 -47.5t47 -112.5q0 -66 -47.5 -112t-112.5 -46q-66 0 -112 46t-46 112zM662 532h247l-123 310zM873 1723q0 66 46 113t111 47q66 0 113 -47.5t47 -112.5q0 -66 -47 -112 t-113 -46t-111.5 46t-45.5 112z" />
<glyph unicode="&#xc5;" horiz-adv-x="1572" d="M92 0l694 1489l695 -1489h-355l-86 213h-508l-86 -213h-354zM485 1682q0 61 23.5 116.5t64.5 97.5t96.5 65.5t116.5 23.5t116.5 -23.5t97.5 -65.5t65.5 -97.5t23.5 -116.5t-23.5 -116.5t-65.5 -96.5t-97 -64.5t-117 -23.5q-61 0 -116.5 23.5t-96.5 64.5t-64.5 96.5 t-23.5 116.5zM647 1680q0 -57 40 -97t97 -40t96 39.5t39 97.5q0 57 -38.5 96t-96.5 39q-57 0 -97 -39t-40 -96zM662 532h247l-123 310z" />
<glyph unicode="&#xc6;" horiz-adv-x="1804" d="M92 0l694 1434h926v-301h-606v-254h506v-301h-506v-277h606v-301h-926v213h-254l-86 -213h-354zM662 535h124v307z" />
<glyph unicode="&#xc7;" horiz-adv-x="1503" d="M92 717q0 160 60.5 300t166 245.5t246 166t299.5 60.5q160 0 300.5 -61.5t244.5 -165.5l-225 -226q-61 59 -143.5 95t-176.5 36t-176 -34.5t-143.5 -96t-96 -143.5t-34.5 -176t34.5 -176t96 -143.5t143.5 -96.5t176 -35t176 35t144 96l227 -225q-106 -106 -246.5 -166.5 t-300.5 -60.5t-300 60.5t-245.5 165.5t-166 245.5t-60.5 300.5zM600 0v170h2q61 0 116.5 -23.5t97.5 -65.5t65.5 -97.5t23.5 -116.5t-23.5 -116.5t-65.5 -96.5t-97 -64.5t-117 -23.5l-2 162q57 0 96 39.5t39 97.5q0 57 -38.5 96t-96.5 39z" />
<glyph unicode="&#xc8;" horiz-adv-x="1110" d="M92 0v1434h926v-320h-606v-223h506v-320h-506v-252h606v-319h-926zM291 1803l199 151l330 -256l-95 -133z" />
<glyph unicode="&#xc9;" horiz-adv-x="1110" d="M92 0v1434h926v-320h-606v-223h506v-320h-506v-252h606v-319h-926zM289 1698l330 256l199 -151l-435 -238z" />
<glyph unicode="&#xca;" horiz-adv-x="1110" d="M92 0v1434h926v-320h-606v-223h506v-320h-506v-252h606v-319h-926zM225 1698l330 256l330 -256l-95 -133l-235 129l-236 -129z" />
<glyph unicode="&#xcb;" horiz-adv-x="1110" d="M92 0v1434h926v-320h-606v-223h506v-320h-506v-252h606v-319h-926zM153 1723q0 66 46 113t112 47t113 -47.5t47 -112.5q0 -66 -47.5 -112t-112.5 -46q-66 0 -112 46t-46 112zM641 1723q0 66 46 113t111 47q66 0 113 -47.5t47 -112.5q0 -66 -47 -112t-113 -46t-111.5 46 t-45.5 112z" />
<glyph unicode="&#xcc;" horiz-adv-x="503" d="M-10 1803l199 151l330 -256l-95 -133zM92 0v1434h320v-1434h-320z" />
<glyph unicode="&#xcd;" horiz-adv-x="503" d="M-10 1698l330 256l199 -151l-435 -238zM92 0v1434h320v-1434h-320z" />
<glyph unicode="&#xce;" horiz-adv-x="503" d="M-78 1698l330 256l330 -256l-95 -133l-235 129l-236 -129zM92 0v1434h320v-1434h-320z" />
<glyph unicode="&#xcf;" horiz-adv-x="503" d="M-150 1723q0 66 46 113t112 47t113 -47.5t47 -112.5q0 -66 -47.5 -112t-112.5 -46q-66 0 -112 46t-46 112zM92 0v1434h320v-1434h-320zM338 1723q0 66 46 113t111 47q66 0 113 -47.5t47 -112.5q0 -66 -47 -112t-113 -46t-111.5 46t-45.5 112z" />
<glyph unicode="&#xd0;" horiz-adv-x="1439" d="M-74 557v322h166v555h537q180 0 303 -48.5t202.5 -122t122.5 -160.5t63.5 -167t24 -140.5t3.5 -78.5q-10 -201 -91 -359q-35 -68 -86 -132t-126.5 -114.5t-178 -81t-237.5 -30.5h-537v557h-166zM412 322h196q74 0 131.5 16t100.5 44t71.5 63.5t46.5 72.5q43 86 50 199 q0 12 -2 48t-13.5 82t-35 96t-67.5 92t-112.5 70t-169.5 28h-196v-254h293v-322h-293v-235z" />
<glyph unicode="&#xd1;" horiz-adv-x="1368" d="M92 0v1489l864 -784v729h320v-1489l-864 788v-733h-320zM354 1622q12 25 31.5 60t47.5 65.5t63.5 53t82.5 22.5q39 0 68 -17.5t52.5 -39t47 -39t52.5 -17.5t46 16.5t29 37.5q12 23 23 53l117 -80q-16 -33 -37 -68.5t-47.5 -65.5t-60.5 -49.5t-77 -19.5q-41 0 -70.5 17.5 t-55 39t-49 40t-48.5 18.5q-27 0 -45 -16.5t-33 -36.5q-16 -23 -28 -53z" />
<glyph unicode="&#xd2;" horiz-adv-x="1728" d="M92 715q0 162 60.5 303t165 245.5t244.5 165t300 60.5q162 0 303.5 -60.5t246 -165t164.5 -245.5t60 -303q0 -160 -60 -300.5t-164.5 -244.5t-246 -164.5t-303.5 -60.5q-160 0 -300 60.5t-244.5 164.5t-165 244.5t-60.5 300.5zM414 715q0 -94 35.5 -176t96 -142.5 t142.5 -95.5t174 -35q94 0 177 35t144.5 95.5t96.5 142.5t35 176t-35 176t-96.5 143.5t-144.5 97t-177 35.5q-92 0 -174 -35.5t-142.5 -97t-96 -143.5t-35.5 -176zM600 1803l199 151l330 -256l-95 -133z" />
<glyph unicode="&#xd3;" horiz-adv-x="1728" d="M92 715q0 162 60.5 303t165 245.5t244.5 165t300 60.5q162 0 303.5 -60.5t246 -165t164.5 -245.5t60 -303q0 -160 -60 -300.5t-164.5 -244.5t-246 -164.5t-303.5 -60.5q-160 0 -300 60.5t-244.5 164.5t-165 244.5t-60.5 300.5zM414 715q0 -94 35.5 -176t96 -142.5 t142.5 -95.5t174 -35q94 0 177 35t144.5 95.5t96.5 142.5t35 176t-35 176t-96.5 143.5t-144.5 97t-177 35.5q-92 0 -174 -35.5t-142.5 -97t-96 -143.5t-35.5 -176zM600 1698l330 256l199 -151l-435 -238z" />
<glyph unicode="&#xd4;" horiz-adv-x="1728" d="M92 715q0 162 60.5 303t165 245.5t244.5 165t300 60.5q162 0 303.5 -60.5t246 -165t164.5 -245.5t60 -303q0 -160 -60 -300.5t-164.5 -244.5t-246 -164.5t-303.5 -60.5q-160 0 -300 60.5t-244.5 164.5t-165 244.5t-60.5 300.5zM414 715q0 -94 35.5 -176t96 -142.5 t142.5 -95.5t174 -35q94 0 177 35t144.5 95.5t96.5 142.5t35 176t-35 176t-96.5 143.5t-144.5 97t-177 35.5q-92 0 -174 -35.5t-142.5 -97t-96 -143.5t-35.5 -176zM534 1698l330 256l330 -256l-95 -133l-235 129l-236 -129z" />
<glyph unicode="&#xd5;" horiz-adv-x="1728" d="M92 715q0 162 60.5 303t165 245.5t244.5 165t300 60.5q162 0 303.5 -60.5t246 -165t164.5 -245.5t60 -303q0 -160 -60 -300.5t-164.5 -244.5t-246 -164.5t-303.5 -60.5q-160 0 -300 60.5t-244.5 164.5t-165 244.5t-60.5 300.5zM414 715q0 -94 35.5 -176t96 -142.5 t142.5 -95.5t174 -35q94 0 177 35t144.5 95.5t96.5 142.5t35 176t-35 176t-96.5 143.5t-144.5 97t-177 35.5q-92 0 -174 -35.5t-142.5 -97t-96 -143.5t-35.5 -176zM534 1622q12 25 31.5 60t47.5 65.5t63.5 53t82.5 22.5q39 0 68 -17.5t52.5 -39t47 -39t52.5 -17.5t46 16.5 t29 37.5q12 23 23 53l117 -80q-16 -33 -37 -68.5t-47.5 -65.5t-60.5 -49.5t-77 -19.5q-41 0 -70.5 17.5t-55 39t-49 40t-48.5 18.5q-27 0 -45 -16.5t-33 -36.5q-16 -23 -28 -53z" />
<glyph unicode="&#xd6;" horiz-adv-x="1728" d="M92 715q0 162 60.5 303t165 245.5t244.5 165t300 60.5q162 0 303.5 -60.5t246 -165t164.5 -245.5t60 -303q0 -160 -60 -300.5t-164.5 -244.5t-246 -164.5t-303.5 -60.5q-160 0 -300 60.5t-244.5 164.5t-165 244.5t-60.5 300.5zM414 715q0 -94 35.5 -176t96 -142.5 t142.5 -95.5t174 -35q94 0 177 35t144.5 95.5t96.5 142.5t35 176t-35 176t-96.5 143.5t-144.5 97t-177 35.5q-92 0 -174 -35.5t-142.5 -97t-96 -143.5t-35.5 -176zM463 1723q0 66 46 113t112 47t113 -47.5t47 -112.5q0 -66 -47.5 -112t-112.5 -46q-66 0 -112 46t-46 112z M951 1723q0 66 46 113t111 47q66 0 113 -47.5t47 -112.5q0 -66 -47 -112t-113 -46t-111.5 46t-45.5 112z" />
<glyph unicode="&#xd7;" horiz-adv-x="1107" d="M92 485l234 234l-234 233l227 228l234 -234l233 234l228 -228l-234 -233l236 -234l-228 -227l-235 234l-234 -234z" />
<glyph unicode="&#xd8;" horiz-adv-x="1728" d="M92 715q0 162 60.5 303t165 245.5t244.5 165t300 60.5q162 0 303.5 -60.5t246 -165t164.5 -245.5t60 -303q0 -160 -60 -300.5t-164.5 -244.5t-246 -164.5t-303.5 -60.5q-160 0 -300 60.5t-244.5 164.5t-165 244.5t-60.5 300.5zM414 715q0 -113 49 -208t135 -155l223 813 q-86 -8 -159.5 -46t-129 -98t-87 -139t-31.5 -167zM905 268q88 8 163 45t130 97.5t86 138.5t31 166q0 113 -49 209t-136 157z" />
<glyph unicode="&#xd9;" horiz-adv-x="1429" d="M92 567v867h320v-867q0 -63 23.5 -118.5t64.5 -96.5t96 -64.5t119 -23.5q63 0 118.5 23.5t96.5 64.5t64.5 96.5t23.5 118.5v867h319v-867q0 -129 -49 -242.5t-133 -197.5t-197.5 -133t-242.5 -49t-243 49t-198 133t-133 197.5t-49 242.5zM450 1803l199 151l330 -256 l-95 -133z" />
<glyph unicode="&#xda;" horiz-adv-x="1429" d="M92 567v867h320v-867q0 -63 23.5 -118.5t64.5 -96.5t96 -64.5t119 -23.5q63 0 118.5 23.5t96.5 64.5t64.5 96.5t23.5 118.5v867h319v-867q0 -129 -49 -242.5t-133 -197.5t-197.5 -133t-242.5 -49t-243 49t-198 133t-133 197.5t-49 242.5zM450 1698l330 256l199 -151 l-435 -238z" />
<glyph unicode="&#xdb;" horiz-adv-x="1429" d="M92 567v867h320v-867q0 -63 23.5 -118.5t64.5 -96.5t96 -64.5t119 -23.5q63 0 118.5 23.5t96.5 64.5t64.5 96.5t23.5 118.5v867h319v-867q0 -129 -49 -242.5t-133 -197.5t-197.5 -133t-242.5 -49t-243 49t-198 133t-133 197.5t-49 242.5zM385 1698l330 256l330 -256 l-95 -133l-235 129l-236 -129z" />
<glyph unicode="&#xdc;" horiz-adv-x="1429" d="M92 567v867h320v-867q0 -63 23.5 -118.5t64.5 -96.5t96 -64.5t119 -23.5q63 0 118.5 23.5t96.5 64.5t64.5 96.5t23.5 118.5v867h319v-867q0 -129 -49 -242.5t-133 -197.5t-197.5 -133t-242.5 -49t-243 49t-198 133t-133 197.5t-49 242.5zM315 1723q0 66 46 113t112 47 t113 -47.5t47 -112.5q0 -66 -47.5 -112t-112.5 -46q-66 0 -112 46t-46 112zM803 1723q0 66 46 113t111 47q66 0 113 -47.5t47 -112.5q0 -66 -47 -112t-113 -46t-111.5 46t-45.5 112z" />
<glyph unicode="&#xdd;" horiz-adv-x="1456" d="M92 1434h379l256 -414l258 414h379l-477 -715v-719h-320v719zM463 1698l330 256l199 -151l-435 -238z" />
<glyph unicode="&#xde;" horiz-adv-x="1316" d="M92 0v1849h320v-415h305q104 0 197.5 -40t162 -108.5t108.5 -162t40 -197.5t-40 -197.5t-108.5 -163t-162 -109.5t-197.5 -40h-305v-416h-320zM412 717h305q43 0 81 16.5t66.5 45t45 66.5t16.5 81q0 80 -54.5 138t-130.5 69h-329v-416z" />
<glyph unicode="&#xdf;" horiz-adv-x="1177" d="M92 0v842q0 111 21.5 194.5t57.5 147t82 105.5t95 71q113 66 258 74q113 0 196 -28t138 -77t82 -114.5t27 -139.5q0 -100 -20.5 -163.5t-51.5 -101.5t-65.5 -55.5t-63.5 -25.5q39 -4 81 -20.5t76.5 -57.5t57 -111.5t22.5 -181.5q0 -74 -30.5 -148.5t-85 -133t-126 -95 t-153.5 -36.5l-90 321q55 0 85 21.5t44 50.5q16 33 19 74q0 72 -44.5 107.5t-97.5 37.5h-63v322h63q47 0 77 34.5t30 81.5q0 25 -5.5 48.5t-17.5 44t-32.5 33t-51.5 12.5q-61 0 -99 -24t-58.5 -64.5t-27.5 -94t-7 -110.5v-840h-322z" />
<glyph unicode="&#xe0;" d="M92 516q0 119 45 222.5t123 181t181.5 122.5t222.5 45t222 -45t181 -122.5t123 -181t45 -222.5l41 -516h-281l-14 72q-80 -59 -164 -93t-153 -34q-119 0 -222.5 45t-181.5 122.5t-123 181t-45 222.5zM399 1393l199 151l330 -256l-95 -133zM412 516q0 -53 19.5 -98t54 -80 t79.5 -54.5t99 -19.5q51 0 97 19.5t79.5 54.5t53 80t19.5 98q0 51 -19.5 97t-53 80t-79.5 53.5t-97 19.5q-53 0 -98.5 -19.5t-80 -53.5t-54 -80t-19.5 -97z" />
<glyph unicode="&#xe1;" d="M92 516q0 119 45 222.5t123 181t181.5 122.5t222.5 45t222 -45t181 -122.5t123 -181t45 -222.5l41 -516h-281l-14 72q-80 -59 -164 -93t-153 -34q-119 0 -222.5 45t-181.5 122.5t-123 181t-45 222.5zM399 1288l330 256l199 -151l-435 -238zM412 516q0 -53 19.5 -98 t54 -80t79.5 -54.5t99 -19.5q51 0 97 19.5t79.5 54.5t53 80t19.5 98q0 51 -19.5 97t-53 80t-79.5 53.5t-97 19.5q-53 0 -98.5 -19.5t-80 -53.5t-54 -80t-19.5 -97z" />
<glyph unicode="&#xe2;" d="M92 516q0 119 45 222.5t123 181t181.5 122.5t222.5 45t222 -45t181 -122.5t123 -181t45 -222.5l41 -516h-281l-14 72q-80 -59 -164 -93t-153 -34q-119 0 -222.5 45t-181.5 122.5t-123 181t-45 222.5zM334 1288l330 256l330 -256l-95 -133l-235 129l-236 -129zM412 516 q0 -53 19.5 -98t54 -80t79.5 -54.5t99 -19.5q51 0 97 19.5t79.5 54.5t53 80t19.5 98q0 51 -19.5 97t-53 80t-79.5 53.5t-97 19.5q-53 0 -98.5 -19.5t-80 -53.5t-54 -80t-19.5 -97z" />
<glyph unicode="&#xe3;" d="M92 516q0 119 45 222.5t123 181t181.5 122.5t222.5 45t222 -45t181 -122.5t123 -181t45 -222.5l41 -516h-281l-14 72q-80 -59 -164 -93t-153 -34q-119 0 -222.5 45t-181.5 122.5t-123 181t-45 222.5zM334 1212q12 25 31.5 60t47.5 65.5t63.5 53t82.5 22.5q39 0 68 -17.5 t52.5 -39t47 -39t52.5 -17.5t46 16.5t29 37.5q12 23 23 53l117 -80q-16 -33 -37 -68.5t-47.5 -65.5t-60.5 -49.5t-77 -19.5q-41 0 -70.5 17.5t-55 39t-49 40t-48.5 18.5q-27 0 -45 -16.5t-33 -36.5q-16 -23 -28 -53zM412 516q0 -53 19.5 -98t54 -80t79.5 -54.5t99 -19.5 q51 0 97 19.5t79.5 54.5t53 80t19.5 98q0 51 -19.5 97t-53 80t-79.5 53.5t-97 19.5q-53 0 -98.5 -19.5t-80 -53.5t-54 -80t-19.5 -97z" />
<glyph unicode="&#xe4;" d="M92 516q0 119 45 222.5t123 181t181.5 122.5t222.5 45t222 -45t181 -122.5t123 -181t45 -222.5l41 -516h-281l-14 72q-80 -59 -164 -93t-153 -34q-119 0 -222.5 45t-181.5 122.5t-123 181t-45 222.5zM262 1313q0 66 46 113t112 47t113 -47.5t47 -112.5q0 -66 -47.5 -112 t-112.5 -46q-66 0 -112 46t-46 112zM412 516q0 -53 19.5 -98t54 -80t79.5 -54.5t99 -19.5q51 0 97 19.5t79.5 54.5t53 80t19.5 98q0 51 -19.5 97t-53 80t-79.5 53.5t-97 19.5q-53 0 -98.5 -19.5t-80 -53.5t-54 -80t-19.5 -97zM750 1313q0 66 46 113t111 47q66 0 113 -47.5 t47 -112.5q0 -66 -47 -112t-113 -46t-111.5 46t-45.5 112z" />
<glyph unicode="&#xe5;" d="M92 516q0 119 45 222.5t123 181t181.5 122.5t222.5 45t222 -45t181 -122.5t123 -181t45 -222.5l41 -516h-281l-14 72q-80 -59 -164 -93t-153 -34q-119 0 -222.5 45t-181.5 122.5t-123 181t-45 222.5zM362 1272q0 61 23.5 116.5t64.5 97.5t96.5 65.5t116.5 23.5 t116.5 -23.5t97.5 -65.5t65.5 -97.5t23.5 -116.5t-23.5 -116.5t-65.5 -96.5t-97 -64.5t-117 -23.5q-61 0 -116.5 23.5t-96.5 64.5t-64.5 96.5t-23.5 116.5zM412 516q0 -53 19.5 -98t54 -80t79.5 -54.5t99 -19.5q51 0 97 19.5t79.5 54.5t53 80t19.5 98q0 51 -19.5 97t-53 80 t-79.5 53.5t-97 19.5q-53 0 -98.5 -19.5t-80 -53.5t-54 -80t-19.5 -97zM524 1270q0 -57 40 -97t97 -40t96 39.5t39 97.5q0 57 -38.5 96t-96.5 39q-57 0 -97 -39t-40 -96z" />
<glyph unicode="&#xe6;" horiz-adv-x="2148" d="M92 516q0 119 45 222.5t123 181t181.5 122.5t222.5 45q121 0 226 -47t183 -127q78 80 183.5 127t228.5 47q119 0 222 -45t181 -122.5t123 -181t45 -222.5v-119h-788q14 -25 35.5 -49t54.5 -42.5t79 -30t109 -11.5t108.5 9.5t76.5 19.5q35 12 59 31l207 -205 q-39 -41 -91.5 -73t-112.5 -54.5t-123.5 -34.5t-123.5 -12q-111 0 -204 27.5t-168 74.5l-7 -47h-172l-10 51q-72 -49 -153.5 -77.5t-167.5 -28.5q-119 0 -222.5 45t-181.5 122.5t-123 181t-45 222.5zM412 516q0 -53 19.5 -98t54 -80t79.5 -54.5t99 -19.5q51 0 97 19.5 t79.5 54.5t53 80t19.5 98v10q-2 49 -22.5 93.5t-54 77t-77.5 51t-95 18.5q-53 0 -98.5 -19.5t-80 -53.5t-54 -80t-19.5 -97zM1247 635h471q-18 61 -52 96t-70.5 52.5t-67.5 20.5t-43 3t-44 -3t-69 -20.5t-71.5 -52.5t-53.5 -96z" />
<glyph unicode="&#xe7;" horiz-adv-x="1189" d="M92 516q0 119 45 222.5t123 181t181.5 122.5t222.5 45q129 0 242.5 -54t191.5 -146l-230 -228q-35 47 -87 77t-117 30q-53 0 -98.5 -19.5t-80 -53.5t-54 -80t-19.5 -97q0 -53 19.5 -98t54 -80t79.5 -54.5t99 -19.5q66 0 118 29t86 78l230 -228q-78 -92 -191.5 -145 t-242.5 -53q-119 0 -222.5 45t-181.5 122.5t-123 181t-45 222.5zM442 0v170h2q61 0 116.5 -23.5t97.5 -65.5t65.5 -97.5t23.5 -116.5t-23.5 -116.5t-65.5 -96.5t-97 -64.5t-117 -23.5l-2 162q57 0 96 39.5t39 97.5q0 57 -38.5 96t-96.5 39z" />
<glyph unicode="&#xe8;" d="M92 516q0 119 45 222.5t123 181t181.5 122.5t222.5 45t222 -45t181 -122.5t123 -181t45 -222.5v-119h-789q14 -25 36 -49t54.5 -42.5t79 -30t109.5 -11.5t108.5 9.5t75.5 19.5q35 12 60 31l207 -205q-39 -41 -91.5 -73t-113 -54.5t-124 -34.5t-122.5 -12q-141 0 -258 45 t-200 122.5t-129 181t-46 222.5zM399 1393l199 151l330 -256l-95 -133zM426 635h471q-18 61 -52 96t-71 52.5t-67.5 20.5t-42.5 3t-44 -3t-69 -20.5t-72 -52.5t-53 -96z" />
<glyph unicode="&#xe9;" d="M92 516q0 119 45 222.5t123 181t181.5 122.5t222.5 45t222 -45t181 -122.5t123 -181t45 -222.5v-119h-789q14 -25 36 -49t54.5 -42.5t79 -30t109.5 -11.5t108.5 9.5t75.5 19.5q35 12 60 31l207 -205q-39 -41 -91.5 -73t-113 -54.5t-124 -34.5t-122.5 -12q-141 0 -258 45 t-200 122.5t-129 181t-46 222.5zM399 1288l330 256l199 -151l-435 -238zM426 635h471q-18 61 -52 96t-71 52.5t-67.5 20.5t-42.5 3t-44 -3t-69 -20.5t-72 -52.5t-53 -96z" />
<glyph unicode="&#xea;" d="M92 516q0 119 45 222.5t123 181t181.5 122.5t222.5 45t222 -45t181 -122.5t123 -181t45 -222.5v-119h-789q14 -25 36 -49t54.5 -42.5t79 -30t109.5 -11.5t108.5 9.5t75.5 19.5q35 12 60 31l207 -205q-39 -41 -91.5 -73t-113 -54.5t-124 -34.5t-122.5 -12q-141 0 -258 45 t-200 122.5t-129 181t-46 222.5zM334 1288l330 256l330 -256l-95 -133l-235 129l-236 -129zM426 635h471q-18 61 -52 96t-71 52.5t-67.5 20.5t-42.5 3t-44 -3t-69 -20.5t-72 -52.5t-53 -96z" />
<glyph unicode="&#xeb;" d="M92 516q0 119 45 222.5t123 181t181.5 122.5t222.5 45t222 -45t181 -122.5t123 -181t45 -222.5v-119h-789q14 -25 36 -49t54.5 -42.5t79 -30t109.5 -11.5t108.5 9.5t75.5 19.5q35 12 60 31l207 -205q-39 -41 -91.5 -73t-113 -54.5t-124 -34.5t-122.5 -12q-141 0 -258 45 t-200 122.5t-129 181t-46 222.5zM262 1313q0 66 46 113t112 47t113 -47.5t47 -112.5q0 -66 -47.5 -112t-112.5 -46q-66 0 -112 46t-46 112zM426 635h471q-18 61 -52 96t-71 52.5t-67.5 20.5t-42.5 3t-44 -3t-69 -20.5t-72 -52.5t-53 -96zM750 1313q0 66 46 113t111 47 q66 0 113 -47.5t47 -112.5q0 -66 -47 -112t-113 -46t-111.5 46t-45.5 112z" />
<glyph unicode="&#xec;" horiz-adv-x="503" d="M-12 1393l198 151l330 -256l-94 -133zM92 0v1024h320v-1024h-320z" />
<glyph unicode="&#xed;" horiz-adv-x="503" d="M-12 1288l329 256l199 -151l-434 -238zM92 0v1024h320v-1024h-320z" />
<glyph unicode="&#xee;" horiz-adv-x="503" d="M-78 1288l330 256l330 -256l-95 -133l-235 129l-236 -129zM92 0v1024h320v-1024h-320z" />
<glyph unicode="&#xef;" horiz-adv-x="503" d="M-150 1313q0 66 46.5 113t111.5 47q66 0 113 -47.5t47 -112.5q0 -66 -47 -112t-113 -46t-112 46t-46 112zM92 0v1024h320v-1024h-320zM338 1313q0 66 46 113t112 47t112.5 -47.5t46.5 -112.5q0 -66 -47 -112t-112 -46q-66 0 -112 46t-46 112z" />
<glyph unicode="&#xf0;" horiz-adv-x="1138" d="M92 399q0 94 30 177t84 145.5t131 98.5t171 36q53 0 91 -11t60 -24q27 -14 41 -33q-8 98 -54 168t-111 117l-140 -147l-159 100l86 135q-16 4 -34 5t-34 3v320q139 0 254 -35l108 170l273 -172l-127 -135q80 -70 134 -159t88 -188.5t48.5 -205t14.5 -207.5 q0 -121 -33 -231.5t-95.5 -194.5t-154.5 -135t-209 -51q-119 0 -206 32.5t-144.5 92t-85 143.5t-27.5 186zM410 418q-2 -43 14 -78q14 -29 46 -52.5t97 -23.5q66 0 105 43t50 99.5t-8.5 110.5t-68.5 77q-53 20 -96 11t-74 -36.5t-48 -68.5t-17 -82z" />
<glyph unicode="&#xf1;" horiz-adv-x="1368" d="M92 0v1087l864 -571v508h320v-1079l-864 571v-516h-320zM354 1212q12 25 31.5 60t47.5 65.5t63.5 53t82.5 22.5q39 0 68 -17.5t52.5 -39t47 -39t52.5 -17.5t46 16.5t29 37.5q12 23 23 53l117 -80q-16 -33 -37 -68.5t-47.5 -65.5t-60.5 -49.5t-77 -19.5q-41 0 -70.5 17.5 t-55 39t-49 40t-48.5 18.5q-27 0 -45 -16.5t-33 -36.5q-16 -23 -28 -53z" />
<glyph unicode="&#xf2;" d="M92 516q0 119 45 222.5t123 181t181.5 122.5t222.5 45t222 -45t181 -122.5t123 -181t45 -222.5t-45 -222.5t-123 -181t-181.5 -122.5t-221.5 -45q-119 0 -222.5 45t-181.5 122.5t-123 181t-45 222.5zM399 1393l199 151l330 -256l-95 -133zM412 516q0 -53 19.5 -98t54 -80 t79.5 -54.5t99 -19.5q51 0 97 19.5t79.5 54.5t53 80t19.5 98q0 51 -19.5 97t-53 80t-79.5 53.5t-97 19.5q-53 0 -98.5 -19.5t-80 -53.5t-54 -80t-19.5 -97z" />
<glyph unicode="&#xf3;" d="M92 516q0 119 45 222.5t123 181t181.5 122.5t222.5 45t222 -45t181 -122.5t123 -181t45 -222.5t-45 -222.5t-123 -181t-181.5 -122.5t-221.5 -45q-119 0 -222.5 45t-181.5 122.5t-123 181t-45 222.5zM399 1288l330 256l199 -151l-435 -238zM412 516q0 -53 19.5 -98 t54 -80t79.5 -54.5t99 -19.5q51 0 97 19.5t79.5 54.5t53 80t19.5 98q0 51 -19.5 97t-53 80t-79.5 53.5t-97 19.5q-53 0 -98.5 -19.5t-80 -53.5t-54 -80t-19.5 -97z" />
<glyph unicode="&#xf4;" d="M92 516q0 119 45 222.5t123 181t181.5 122.5t222.5 45t222 -45t181 -122.5t123 -181t45 -222.5t-45 -222.5t-123 -181t-181.5 -122.5t-221.5 -45q-119 0 -222.5 45t-181.5 122.5t-123 181t-45 222.5zM334 1288l330 256l330 -256l-95 -133l-235 129l-236 -129zM412 516 q0 -53 19.5 -98t54 -80t79.5 -54.5t99 -19.5q51 0 97 19.5t79.5 54.5t53 80t19.5 98q0 51 -19.5 97t-53 80t-79.5 53.5t-97 19.5q-53 0 -98.5 -19.5t-80 -53.5t-54 -80t-19.5 -97z" />
<glyph unicode="&#xf5;" d="M92 516q0 119 45 222.5t123 181t181.5 122.5t222.5 45t222 -45t181 -122.5t123 -181t45 -222.5t-45 -222.5t-123 -181t-181.5 -122.5t-221.5 -45q-119 0 -222.5 45t-181.5 122.5t-123 181t-45 222.5zM334 1212q12 25 31.5 60t47.5 65.5t63.5 53t82.5 22.5q39 0 68 -17.5 t52.5 -39t47 -39t52.5 -17.5t46 16.5t29 37.5q12 23 23 53l117 -80q-16 -33 -37 -68.5t-47.5 -65.5t-60.5 -49.5t-77 -19.5q-41 0 -70.5 17.5t-55 39t-49 40t-48.5 18.5q-27 0 -45 -16.5t-33 -36.5q-16 -23 -28 -53zM412 516q0 -53 19.5 -98t54 -80t79.5 -54.5t99 -19.5 q51 0 97 19.5t79.5 54.5t53 80t19.5 98q0 51 -19.5 97t-53 80t-79.5 53.5t-97 19.5q-53 0 -98.5 -19.5t-80 -53.5t-54 -80t-19.5 -97z" />
<glyph unicode="&#xf6;" d="M92 516q0 119 45 222.5t123 181t181.5 122.5t222.5 45t222 -45t181 -122.5t123 -181t45 -222.5t-45 -222.5t-123 -181t-181.5 -122.5t-221.5 -45q-119 0 -222.5 45t-181.5 122.5t-123 181t-45 222.5zM262 1313q0 66 46 113t112 47t113 -47.5t47 -112.5q0 -66 -47.5 -112 t-112.5 -46q-66 0 -112 46t-46 112zM412 516q0 -53 19.5 -98t54 -80t79.5 -54.5t99 -19.5q51 0 97 19.5t79.5 54.5t53 80t19.5 98q0 51 -19.5 97t-53 80t-79.5 53.5t-97 19.5q-53 0 -98.5 -19.5t-80 -53.5t-54 -80t-19.5 -97zM750 1313q0 66 46 113t111 47q66 0 113 -47.5 t47 -112.5q0 -66 -47 -112t-113 -46t-111.5 46t-45.5 112z" />
<glyph unicode="&#xf7;" horiz-adv-x="1036" d="M92 430v170h852v-170h-852zM360 174q0 66 46 113t112 47t113 -47t47 -113t-47.5 -111.5t-112.5 -45.5q-66 0 -112 45.5t-46 111.5zM360 850q0 66 46 113t112 47t113 -47t47 -113t-47.5 -111.5t-112.5 -45.5q-66 0 -112 45.5t-46 111.5z" />
<glyph unicode="&#xf8;" d="M92 516q0 117 44 220.5t121 181t179.5 122.5t218.5 47l39 142h332l-63 -228q123 -76 197.5 -203.5t74.5 -281.5q0 -117 -44 -220t-121 -181t-179.5 -123t-218.5 -47l-41 -150h-330l64 234q-123 76 -198 203.5t-75 283.5zM412 516q0 -84 47 -147l102 374 q-66 -29 -107.5 -89t-41.5 -138zM766 285q66 29 106.5 91t40.5 140q0 80 -45 143z" />
<glyph unicode="&#xf9;" horiz-adv-x="1306" d="M92 567v457h320v-457q0 -63 14 -118.5t44 -96.5t75 -64.5t108 -23.5t108.5 23.5t74 64.5t43 96.5t14.5 118.5v457h321v-508l41 -516h-280l-14 70q-74 -59 -155 -92t-153 -33q-129 0 -232.5 49t-177 133t-112.5 197.5t-39 242.5zM389 1393l199 151l330 -256l-95 -133z" />
<glyph unicode="&#xfa;" horiz-adv-x="1306" d="M92 567v457h320v-457q0 -63 14 -118.5t44 -96.5t75 -64.5t108 -23.5t108.5 23.5t74 64.5t43 96.5t14.5 118.5v457h321v-508l41 -516h-280l-14 70q-74 -59 -155 -92t-153 -33q-129 0 -232.5 49t-177 133t-112.5 197.5t-39 242.5zM389 1288l330 256l199 -151l-435 -238z " />
<glyph unicode="&#xfb;" horiz-adv-x="1306" d="M92 567v457h320v-457q0 -63 14 -118.5t44 -96.5t75 -64.5t108 -23.5t108.5 23.5t74 64.5t43 96.5t14.5 118.5v457h321v-508l41 -516h-280l-14 70q-74 -59 -155 -92t-153 -33q-129 0 -232.5 49t-177 133t-112.5 197.5t-39 242.5zM323 1288l330 256l330 -256l-95 -133 l-235 129l-236 -129z" />
<glyph unicode="&#xfc;" horiz-adv-x="1290" d="M78 567v457h320v-457q0 -63 14 -118.5t44 -96.5t75 -64.5t108 -23.5t108.5 23.5t74 64.5t43 96.5t14.5 118.5v457h321v-508l41 -516h-280l-14 70q-74 -59 -155 -92t-153 -33q-129 0 -232.5 49t-177 133t-112.5 197.5t-39 242.5zM235 1313q0 66 46 113t112 47t113 -47.5 t47 -112.5q0 -66 -47.5 -112t-112.5 -46q-66 0 -112 46t-46 112zM723 1313q0 66 46 113t111 47q66 0 113 -47.5t47 -112.5q0 -66 -47 -112t-113 -46t-111.5 46t-45.5 112z" />
<glyph unicode="&#xfd;" horiz-adv-x="1406" d="M92 1024h354l256 -616l259 616h354l-453 -1024q0 -166 -65.5 -304t-180.5 -245l-225 225q70 61 111 141.5t41 182.5zM438 1288l330 256l199 -151l-435 -238z" />
<glyph unicode="&#xfe;" d="M92 -420v1854h322v-418q59 35 123.5 53t126.5 18q119 0 222 -45t181 -122.5t123 -181t45 -222.5t-45 -222.5t-123 -181t-181.5 -122.5t-221.5 -45q-70 0 -132.5 21.5t-117.5 56.5v-443h-322zM414 516q4 -109 74.5 -179.5t175.5 -70.5q51 0 97 19.5t81 53.5t54 79t19 98 q0 51 -19 97t-54 81t-81 54.5t-97 19.5q-53 0 -98.5 -19.5t-79 -54.5t-53 -81t-19.5 -97z" />
<glyph unicode="&#xff;" horiz-adv-x="1406" d="M92 1024h354l256 -616l259 616h354l-453 -1024q0 -166 -65.5 -304t-180.5 -245l-225 225q70 61 111 141.5t41 182.5zM301 1313q0 66 46 113t112 47t113 -47.5t47 -112.5q0 -66 -47.5 -112t-112.5 -46q-66 0 -112 46t-46 112zM789 1313q0 66 46 113t111 47q66 0 113 -47.5 t47 -112.5q0 -66 -47 -112t-113 -46t-111.5 46t-45.5 112z" />
<glyph unicode="&#x152;" horiz-adv-x="1826" d="M92 715q0 150 56.5 281.5t153.5 228t227 153t280 56.5h926v-301h-607v-254h506v-301h-506v-277h607v-301h-926q-150 0 -280 55.5t-227 152.5t-153.5 227t-56.5 280zM393 715q0 -88 33 -164t89 -132.5t132 -88t162 -31.5v836q-86 0 -162 -33t-132 -90.5t-89 -133 t-33 -163.5z" />
<glyph unicode="&#x153;" horiz-adv-x="2148" d="M92 516q0 119 45 222.5t123 181t181.5 122.5t222.5 45q121 0 226 -47t183 -127q78 80 183.5 127t228.5 47q119 0 222 -45t181 -122.5t123 -181t45 -222.5v-119h-788q14 -25 35.5 -49t54.5 -42.5t79 -30t109 -11.5t108.5 9.5t76.5 19.5q35 12 59 31l207 -205 q-39 -41 -91.5 -73t-112.5 -54.5t-123.5 -34.5t-123.5 -12q-147 0 -266 47t-203 131q-78 -84 -184.5 -131t-228.5 -47q-119 0 -222.5 45t-181.5 122.5t-123 181t-45 222.5zM412 516q0 -53 19.5 -98t54 -80t79.5 -54.5t99 -19.5q51 0 97 19.5t79.5 54.5t53 80t19.5 98v10 q-2 49 -22.5 93.5t-54 77t-77.5 51t-95 18.5q-53 0 -98.5 -19.5t-80 -53.5t-54 -80t-19.5 -97zM1247 635h471q-18 61 -52 96t-70.5 52.5t-67.5 20.5t-43 3t-44 -3t-69 -20.5t-71.5 -52.5t-53.5 -96z" />
<glyph unicode="&#x178;" horiz-adv-x="1456" d="M92 1434h379l256 -414l258 414h379l-477 -715v-719h-320v719zM325 1723q0 66 46 113t112 47t113 -47.5t47 -112.5q0 -66 -47.5 -112t-112.5 -46q-66 0 -112 46t-46 112zM813 1723q0 66 46 113t111 47q66 0 113 -47.5t47 -112.5q0 -66 -47 -112t-113 -46t-111.5 46 t-45.5 112z" />
<glyph unicode="&#x2c6;" horiz-adv-x="843" d="M92 1288l330 256l330 -256l-95 -133l-235 129l-236 -129z" />
<glyph unicode="&#x2dc;" horiz-adv-x="843" d="M92 1212q12 25 31.5 60t47.5 65.5t63.5 53t82.5 22.5q39 0 68 -17.5t52.5 -39t47 -39t52.5 -17.5t46 16.5t29 37.5q12 23 23 53l117 -80q-16 -33 -37 -68.5t-47.5 -65.5t-60.5 -49.5t-77 -19.5q-41 0 -70.5 17.5t-55 39t-49 40t-48.5 18.5q-27 0 -45 -16.5t-33 -36.5 q-16 -23 -28 -53z" />
<glyph unicode="&#x2000;" horiz-adv-x="992" />
<glyph unicode="&#x2001;" horiz-adv-x="1985" />
<glyph unicode="&#x2002;" horiz-adv-x="992" />
<glyph unicode="&#x2003;" horiz-adv-x="1985" />
<glyph unicode="&#x2004;" horiz-adv-x="661" />
<glyph unicode="&#x2005;" horiz-adv-x="496" />
<glyph unicode="&#x2006;" horiz-adv-x="330" />
<glyph unicode="&#x2007;" horiz-adv-x="330" />
<glyph unicode="&#x2008;" horiz-adv-x="248" />
<glyph unicode="&#x2009;" horiz-adv-x="397" />
<glyph unicode="&#x200a;" horiz-adv-x="110" />
<glyph unicode="&#x2010;" horiz-adv-x="962" d="M92 559v322h778v-322h-778z" />
<glyph unicode="&#x2011;" horiz-adv-x="962" d="M92 559v322h778v-322h-778z" />
<glyph unicode="&#x2012;" horiz-adv-x="962" d="M92 559v322h778v-322h-778z" />
<glyph unicode="&#x2013;" horiz-adv-x="952" d="M92 430v170h768v-170h-768z" />
<glyph unicode="&#x2014;" horiz-adv-x="1296" d="M92 430v170h1112v-170h-1112z" />
<glyph unicode="&#x2018;" horiz-adv-x="501" d="M92 1352q0 39 3 78.5t14.5 84t36 94.5t69.5 111l90 -45q-35 -47 -35 -81.5t15 -57.5q16 -27 47 -47q35 -23 56.5 -57.5t21.5 -79.5q0 -66 -46.5 -113t-111.5 -47q-66 0 -113 47t-47 113z" />
<glyph unicode="&#x2019;" horiz-adv-x="501" d="M92 1561q0 66 46 112.5t112 46.5t113 -47t47 -112q0 -39 -3.5 -79t-14.5 -84t-35.5 -94.5t-69.5 -111.5l-90 45q35 47 34.5 82t-14.5 57q-16 27 -47 47q-35 23 -56.5 58t-21.5 80z" />
<glyph unicode="&#x201a;" horiz-adv-x="501" d="M92 102q0 66 46 113t112 47t113 -47t47 -113q0 -39 -3.5 -78.5t-14.5 -83.5t-35.5 -94.5t-69.5 -111.5l-90 45q35 47 34.5 82t-14.5 57q-16 27 -47 47q-35 23 -56.5 57.5t-21.5 79.5z" />
<glyph unicode="&#x201c;" horiz-adv-x="911" d="M92 1352q0 39 3 78.5t14.5 84t36 94.5t69.5 111l90 -45q-35 -47 -35 -81.5t15 -57.5q16 -27 47 -47q35 -23 56.5 -57.5t21.5 -79.5q0 -66 -46.5 -113t-111.5 -47q-66 0 -113 47t-47 113zM502 1352q0 39 3 78.5t14 84t36 94.5t70 111l90 -45q-35 -47 -35 -81.5t14 -57.5 q16 -27 47 -47q35 -23 56.5 -57.5t21.5 -79.5q0 -66 -46 -113t-111 -47q-66 0 -113 47t-47 113z" />
<glyph unicode="&#x201d;" horiz-adv-x="911" d="M92 1561q0 66 46 112.5t112 46.5t113 -47t47 -112q0 -39 -3.5 -79t-14.5 -84t-35.5 -94.5t-69.5 -111.5l-90 45q35 47 34.5 82t-14.5 57q-16 27 -47 47q-35 23 -56.5 58t-21.5 80zM502 1561q0 66 46 112.5t111 46.5q66 0 113 -47t47 -112q0 -39 -3 -79t-14 -84t-36 -94.5 t-70 -111.5l-90 45q35 47 35 82t-14 57q-16 27 -47 47q-35 23 -56.5 58t-21.5 80z" />
<glyph unicode="&#x201e;" horiz-adv-x="911" d="M92 102q0 66 46 113t112 47t113 -47t47 -113q0 -39 -3.5 -78.5t-14.5 -83.5t-35.5 -94.5t-69.5 -111.5l-90 45q35 47 34.5 82t-14.5 57q-16 27 -47 47q-35 23 -56.5 57.5t-21.5 79.5zM502 102q0 66 46 113t111 47q66 0 113 -47t47 -113q0 -39 -3 -78.5t-14 -83.5 t-36 -94.5t-70 -111.5l-90 45q35 47 35 82t-14 57q-16 27 -47 47q-35 23 -56.5 57.5t-21.5 79.5z" />
<glyph unicode="&#x2022;" horiz-adv-x="731" d="M92 717q0 57 20.5 107t57.5 87t87 58.5t108 21.5q57 0 107 -21.5t87 -58.5t58.5 -87t21.5 -107t-21.5 -107.5t-58.5 -87.5t-87 -57.5t-107 -20.5t-107.5 20.5t-87.5 57.5t-57.5 87.5t-20.5 107.5z" />
<glyph unicode="&#x2026;" horiz-adv-x="1505" d="M92 102q0 66 46 113t112 47t113 -47t47 -113t-47.5 -111.5t-112.5 -45.5q-66 0 -112 45.5t-46 111.5zM594 102q0 66 46 113t112 47t112.5 -47t46.5 -113t-47 -111.5t-112 -45.5q-66 0 -112 45.5t-46 111.5zM1096 102q0 66 46 113t111 47q66 0 113 -47t47 -113t-47 -111.5 t-113 -45.5t-111.5 45.5t-45.5 111.5z" />
<glyph unicode="&#x202f;" horiz-adv-x="397" />
<glyph unicode="&#x2039;" horiz-adv-x="573" d="M92 516l256 330l133 -94l-129 -236l129 -235l-133 -95z" />
<glyph unicode="&#x203a;" horiz-adv-x="573" d="M92 279l129 235l-129 236l133 94l256 -330l-256 -330z" />
<glyph unicode="&#x205f;" horiz-adv-x="496" />
<glyph unicode="&#x20ac;" horiz-adv-x="1503" d="M-14 393v258h108q-2 16 -2 32.5v33.5q0 14 1 28.5t1 28.5h-108v258h174q45 100 116.5 184t162.5 144.5t200 94.5t225 34q160 0 300.5 -61.5t244.5 -165.5l-225 -226q-61 59 -143.5 95t-176.5 36q-98 0 -180 -35.5t-143 -99.5h247v-258h-372q-2 -14 -2 -28.5v-28.5 q0 -16 1 -32.5t3 -33.5h370v-258h-239q59 -59 140 -93t175 -34t176 35t144 96l227 -225q-106 -106 -246.5 -166.5t-300.5 -60.5q-117 0 -224.5 32.5t-197.5 92t-162.5 142.5t-117.5 181h-176z" />
<glyph unicode="&#x2122;" horiz-adv-x="1226" d="M94 879v129h377v-129h-125v-453h-131v453h-121zM473 426l92 600l238 -352l239 352l93 -600h-134l-36 252l-162 -275l-160 275l-37 -252h-133z" />
<glyph unicode="&#x25fc;" horiz-adv-x="1024" d="M0 0v1024h1024v-1024h-1024z" />
<glyph unicode="&#xfb01;" horiz-adv-x="1185" d="M92 0v924q0 166 65.5 311t180.5 252l225 -225q-70 -61 -110.5 -148.5t-40.5 -189.5v-45h682v-879h-320v614l-362 -41v-573h-320z" />
<glyph unicode="&#xfb02;" horiz-adv-x="1185" d="M92 0v924q0 166 65.5 312t180.5 253h756v-1489h-320v1169h-291q-35 -53 -53 -115.5t-18 -129.5v-45h237l-22 -281l-215 -25v-573h-320z" />
</font>
</defs>
</svg>
